<?xml version="1.0" standalone="no"?>
<!DOCTYPE svg PUBLIC "-//W3C//DTD SVG 20010904//EN"
 "http://www.w3.org/TR/2001/REC-SVG-20010904/DTD/svg10.dtd">
<svg version="1.0" xmlns="http://www.w3.org/2000/svg"
 width="500.000000pt" height="500.000000pt" viewBox="0 0 500.000000 500.000000"
 preserveAspectRatio="xMidYMid meet">
<metadata>
Created by potrace 1.14, written by Peter Selinger 2001-2017
</metadata>
<g transform="translate(0.000000,500.000000) scale(0.100000,-0.100000)"
fill="#000000" stroke="none">
<path d="M2360 4980 c-47 -11 -96 -22 -110 -25 -173 -32 -507 -146 -712 -243
-317 -151 -538 -324 -748 -588 -90 -113 -187 -318 -232 -489 -20 -77 -21 -106
-23 -820 -3 -778 -6 -852 -49 -1027 -40 -161 -118 -321 -189 -388 -15 -14 -27
-31 -27 -38 0 -34 116 -354 168 -464 208 -436 492 -714 862 -842 41 -15 76
-26 78 -26 1 1 15 -1 30 -4 15 -4 38 -9 52 -11 42 -9 200 -17 200 -11 0 3 -16
28 -35 55 -19 27 -53 87 -74 133 -52 112 -74 190 -108 373 -10 53 -10 411 0
505 21 200 80 452 162 694 29 88 52 163 49 167 -2 4 -25 10 -51 14 -27 4 -68
14 -93 22 -264 86 -423 288 -456 578 -15 138 -2 332 31 460 8 31 15 59 15 62
0 3 39 3 87 -1 404 -28 732 -183 953 -451 65 -78 60 -14 60 -783 l0 -698 144
-144 c79 -79 148 -146 153 -147 5 -2 68 55 139 127 l129 130 1 697 1 698 28
45 c15 24 71 88 124 141 183 184 423 308 691 354 52 9 200 15 231 8 31 -6 30
-2 63 -193 20 -117 14 -336 -13 -440 -59 -224 -193 -372 -401 -438 -49 -16
-165 -42 -185 -42 -1 0 22 -71 52 -158 29 -86 55 -166 57 -177 2 -11 9 -40 16
-65 7 -25 14 -52 15 -60 2 -8 12 -53 23 -100 11 -47 25 -121 32 -165 6 -44 13
-91 16 -105 8 -47 18 -205 18 -290 -1 -320 -62 -556 -196 -754 l-40 -59 93 6
c193 13 404 88 584 209 89 59 269 232 337 323 146 195 259 423 348 702 l42
132 -33 42 c-123 156 -183 309 -225 579 -4 25 -8 353 -9 730 -1 377 -6 719 -9
760 -27 288 -175 586 -409 822 -67 68 -139 129 -252 216 -13 10 -162 103 -190
118 -53 30 -209 105 -266 129 -35 14 -73 30 -84 34 -125 54 -414 140 -565 167
-14 3 -42 9 -62 15 -74 19 -151 19 -238 -1z"/>
</g>
</svg>
